<svg cache-id="0ccc83946bec460d9c61951ecbae79d8" id="evP1ZF7otjH1" xmlns="http://www.w3.org/2000/svg" xmlns:xlink="http://www.w3.org/1999/xlink" viewBox="0 0 1920 1080" shape-rendering="geometricPrecision" text-rendering="geometricPrecision"><defs><radialGradient id="evP1ZF7otjH2-fill" cx="0" cy="0" r="0.587326" spreadMethod="pad" gradientUnits="objectBoundingBox" gradientTransform="matrix(1 0 0 1.975507 0.5 0.5)"><stop id="evP1ZF7otjH2-fill-0" offset="95%" stop-color="#f41f1f"/><stop id="evP1ZF7otjH2-fill-1" offset="100%" stop-color="#f41b1b"/></radialGradient><radialGradient id="evP1ZF7otjH3-fill" cx="0" cy="0" r="0.791281" spreadMethod="pad" gradientUnits="objectBoundingBox" gradientTransform="translate(0.5 0.5)"><stop id="evP1ZF7otjH3-fill-0" offset="100%" stop-color="#000"/><stop id="evP1ZF7otjH3-fill-1" offset="100%" stop-color="#fff"/></radialGradient></defs><path d="M697.065378,818.342863c109.165719-66.455681,199.947774-115.521001,240.749991-173.683607c23.559517-33.58354-7.491784-76.574267-26.099569-104.398256-64.991865-97.181527,36.934544-144.76493,201.482645-163.215729" transform="matrix(3.398037 0.562433-.273539 1.652634-1965.229277-1061.243796)" paint-order="fill markers stroke" fill="url(#evP1ZF7otjH2-fill)" stroke-width="3.84"/><path d="M639.380706,896.716799c37.893143-23.600879,145.247345-87.788519,191.083817-111.157152c39.593541-20.185824,162.728036-89.169021,177.819672-122.630697c22.150284-49.112343-33.744703-161.741152-43.162585-190.358453-34.010481-103.344697,55.175114-83.137386,126.901297-76.91588" transform="matrix(2.241268-.294414 0.170334 1.296691-1245.629023 22.480822)" fill="url(#evP1ZF7otjH3-fill)" stroke-width="3.84"/><ellipse rx="8.015485" ry="8.537675" transform="matrix(-3.516154 0.232643 0.191652 2.896613 1037.126202 291.983223)" fill="#d2dbed" stroke-width="0"/></svg>
